<svg xmlns="http://www.w3.org/2000/svg" width="496" height="205" viewBox="0 0 496 205">
  <g id="Grupo_138848" data-name="Grupo 138848" transform="translate(3143 9569)">
    <rect id="Image_Place_Holder" data-name="Image Place Holder" width="496" height="205" transform="translate(-2647 -9364) rotate(180)" fill="#d9eaea"/>
    <g id="Grupo_138847" data-name="Grupo 138847" transform="translate(-3959.515 -9995.75)">
      <g id="Grupo_116741" data-name="Grupo 116741" transform="translate(1068.515 492)">
        <g id="Grupo_116740" data-name="Grupo 116740" transform="translate(0 0)">
          <path id="Trazado_161654" data-name="Trazado 161654" d="M82.868,139.6a28.732,28.732,0,0,0,7.846,7.4,46.359,46.359,0,0,0,12.217,5.912,50.374,50.374,0,0,0,9.145,2.1,26.987,26.987,0,0,0,3.192.154c7.372,0,20.957-1.654,32.045-3.2.309.222.607.436.88.635a108.406,108.406,0,0,0,11.672,7.732,35.5,35.5,0,0,0,9.875,3.827,9.587,9.587,0,0,0,2.171.252,8.1,8.1,0,0,0,5.1-1.7c2.492-2.014,2.911-5.191,1.1-8.29a39.1,39.1,0,0,0-4.343-6.058c-.2-.217-.4-.428-.6-.641l1.979-.334c4.619-.779,9.394-1.585,13.5-2.379,1.028-.2,2.066-.375,3.105-.551,1.733-.293,3.525-.6,5.274-1.011,6.25-1.479,9.692-5.581,9.692-11.549V113.523c0-.354.011-.735.023-1.132.08-2.771.213-7.409-4.005-8.611-2.232-.637-5.525-.228-8.529,5.332-.41.759-.787,1.535-1.162,2.311a31.21,31.21,0,0,1-1.977,3.666c-1.04,1.572-2.271,3.095-3.461,4.567l-.293.362c-2.417,2.993-5.991,3.951-11.065,2.93,2.578-6.392,5.6-14,8.028-21.5l.237-.724a42.537,42.537,0,0,0,1.408-4.982,4.179,4.179,0,0,0-.77-3.58c-1.527-1.888-4.561-2.173-7.035-2.211-3.863-.058-9.148-.138-12.644,3.093a35.723,35.723,0,0,0-3.857,4.379c-1.032,1.322-2.09,2.625-3.147,3.928q-.8.983-1.592,1.968l-7.417,9.228-2.8-1.275c-3.82-1.738-7.77-3.537-11.7-5.221l-1.458-.629c-4.979-2.154-10.127-4.382-15.675-4.653a29.3,29.3,0,0,0-10.511,1.94c-6.95,2.4-14.363,7.983-22.032,16.593a18.5,18.5,0,0,0-4.306,15.973A12.853,12.853,0,0,0,82.868,139.6Z" transform="translate(-80.325 -89.913)" fill="#fc4b52"/>
          <path id="Trazado_161655" data-name="Trazado 161655" d="M114.8,164.864a27.362,27.362,0,0,1-3.192-.152,50.791,50.791,0,0,1-9.145-2.081,46.552,46.552,0,0,1-12.217-5.855A28.622,28.622,0,0,1,82.4,149.45a12.651,12.651,0,0,1-1.9-4.283A18.2,18.2,0,0,1,84.8,129.347c7.67-8.527,15.083-14.056,22.033-16.433a29.551,29.551,0,0,1,10.511-1.921c5.547.269,10.7,2.474,15.675,4.609l1.458.622c3.933,1.668,7.883,3.449,11.7,5.171,4.581,2.065,9.319,4.2,14.035,6.145,3.362,1.386,6.941,2.73,11.263,4.226,7.428,2.573,12.31,2.028,15.36-1.711l.293-.359c1.19-1.458,2.421-2.966,3.461-4.523a30.85,30.85,0,0,0,1.977-3.631c.375-.769.752-1.538,1.162-2.289,3-5.507,6.3-5.911,8.53-5.281,4.218,1.191,4.085,5.785,4.005,8.529-.011.393-.023.77-.023,1.12v18.2c0,5.91-3.442,9.972-9.692,11.437-1.75.41-3.541.711-5.274,1-1.039.174-2.077.348-3.105.546-4.1.787-8.876,1.584-13.5,2.356-1.622.271-3.2.535-4.673.786l-.52-2.995c1.479-.251,3.058-.515,4.683-.787,4.6-.769,9.357-1.563,13.422-2.343,1.051-.2,2.113-.38,3.176-.558,1.685-.282,3.427-.575,5.08-.962,4.865-1.141,7.331-3.994,7.331-8.481v-18.2c0-.377.012-.784.024-1.208.1-3.371-.144-5.057-1.78-5.519-2.094-.588-3.867,1.743-4.99,3.8-.388.712-.744,1.441-1.1,2.169a33.377,33.377,0,0,1-2.179,3.983c-1.121,1.678-2.4,3.243-3.634,4.756l-.292.358c-5.829,7.149-15.56,3.778-18.759,2.671-4.38-1.516-8.012-2.879-11.43-4.289-4.763-1.963-9.524-4.11-14.128-6.185-3.8-1.715-7.739-3.488-11.639-5.143l-1.469-.627c-4.727-2.026-9.616-4.121-14.606-4.363a26.914,26.914,0,0,0-9.36,1.759c-6.448,2.2-13.427,7.447-20.743,15.581a15.125,15.125,0,0,0-3.6,13.147,9.667,9.667,0,0,0,1.462,3.254,25.732,25.732,0,0,0,7.029,6.5,43.466,43.466,0,0,0,11.411,5.464,47.761,47.761,0,0,0,8.588,1.96c4.375.535,16.818-.564,35.042-3.095l.426,3.009C136.253,163.165,122.3,164.864,114.8,164.864Z" transform="translate(-80.101 -99.876)" fill="#272525"/>
          <path id="Trazado_161656" data-name="Trazado 161656" d="M215.115,204.089a9.838,9.838,0,0,1-2.228-.258,36.437,36.437,0,0,1-10.135-3.927,111.373,111.373,0,0,1-11.978-7.935c-.712-.519-1.56-1.121-2.475-1.771-2.953-2.1-6.63-4.714-8.795-6.671-2.412-2.18-4.321-4.043-6.166-5.843-1.682-1.641-3.421-3.337-5.569-5.3a1.574,1.574,0,0,1,1.063-2.735h30.931a1.575,1.575,0,0,1,1.166.517L213.383,183.8c.553.606,1.126,1.194,1.7,1.781.654.671,1.308,1.343,1.935,2.039a40.128,40.128,0,0,1,4.457,6.216c1.862,3.181,1.432,6.441-1.125,8.507A8.308,8.308,0,0,1,215.115,204.089Zm-42.3-31.3c.955.915,1.845,1.783,2.721,2.637,1.909,1.862,3.712,3.62,6.079,5.761,2.028,1.833,5.621,4.387,8.508,6.44.926.658,1.783,1.268,2.5,1.793a108.911,108.911,0,0,0,11.592,7.7,33.356,33.356,0,0,0,9.381,3.646,5.6,5.6,0,0,0,4.768-.87c1.685-1.363,1.14-3.182.387-4.469a37.353,37.353,0,0,0-4.079-5.7c-.6-.666-1.226-1.308-1.851-1.95-.6-.612-1.193-1.224-1.769-1.855l-11.987-13.129Z" transform="translate(-123.422 -129.613)" fill="#272525"/>
          <path id="Trazado_161657" data-name="Trazado 161657" d="M240.16,125.766l-2.919-1.18c2.785-6.891,6.251-15.467,8.97-23.852l.246-.752a41.371,41.371,0,0,0,1.349-4.742c.143-.724-.069-.985-.149-1.084-.384-.474-1.532-1.051-4.82-1.1-3.432-.055-8.128-.123-10.792,2.338a34.015,34.015,0,0,0-3.614,4.119c-1.071,1.372-2.168,2.723-3.266,4.076q-.813,1-1.624,2.009l-8.626,10.732-2.453-1.973,8.626-10.731q.813-1.012,1.634-2.02c1.085-1.337,2.17-2.673,3.229-4.03a36.618,36.618,0,0,1,3.958-4.494c3.588-3.316,9.011-3.233,12.976-3.174,2.538.039,5.652.332,7.219,2.269a4.289,4.289,0,0,1,.79,3.673,43.62,43.62,0,0,1-1.445,5.113l-.243.744C246.453,110.2,242.964,118.829,240.16,125.766Z" transform="translate(-145.317 -89.891)" fill="#272525"/>
          <path id="Trazado_161658" data-name="Trazado 161658" d="M121.33,147.9H85.14v-3.148h36.19a2.489,2.489,0,0,0,2.487-2.487v-4.352a2.489,2.489,0,0,0-2.487-2.487H95.553v-3.148H121.33a5.641,5.641,0,0,1,5.635,5.635v4.352A5.641,5.641,0,0,1,121.33,147.9Z" transform="translate(-82.488 -110.682)" fill="#272525"/>
          <rect id="Rectángulo_40747" data-name="Rectángulo 40747" width="3.148" height="11.399" transform="translate(16.643 23.171)" fill="#272525"/>
          <rect id="Rectángulo_40748" data-name="Rectángulo 40748" width="3.148" height="11.399" transform="translate(27.202 23.171)" fill="#272525"/>
          <path id="Trazado_161659" data-name="Trazado 161659" d="M217.442,191.657c-.6-.613-1.193-1.225-1.769-1.855l-11.987-13.128H177.432c.955.914,1.845,1.782,2.721,2.636,1.909,1.862,3.712,3.621,6.079,5.761,2.028,1.833,5.621,4.388,8.508,6.44.925.658,1.783,1.268,2.5,1.793a108.909,108.909,0,0,0,11.592,7.7,33.359,33.359,0,0,0,9.38,3.646,5.605,5.605,0,0,0,4.768-.87c1.685-1.362,1.14-3.182.387-4.468a37.329,37.329,0,0,0-4.079-5.7C218.693,192.941,218.066,192.3,217.442,191.657Z" transform="translate(-128.239 -132.942)" fill="#a7e446"/>
          <path id="Trazado_161660" data-name="Trazado 161660" d="M250.373,103.65l.245-.752a41.377,41.377,0,0,0,1.349-4.742c.143-.724-.069-.985-.148-1.084-.384-.474-1.532-1.051-4.82-1.1-3.432-.055-8.128-.123-10.792,2.338a34.062,34.062,0,0,0-3.614,4.119c-1.071,1.372-2.168,2.723-3.266,4.076q-.814,1-1.625,2.009l-7.1,8.833c2.837,1.273,5.7,2.534,8.559,3.724,3.45,1.436,7.123,2.828,11.559,4.378.454.159.9.3,1.333.44C244.714,119.3,247.861,111.393,250.373,103.65Z" transform="translate(-149.134 -92.763)" fill="#a7e446"/>
          <path id="Trazado_161661" data-name="Trazado 161661" d="M147.489,147.668a2.49,2.49,0,0,0,2.487-2.487V140.83a2.49,2.49,0,0,0-2.487-2.487h-7.763v9.325Z" transform="translate(-109.21 -113.58)" fill="#a7e446"/>
          <g id="Grupo_116739" data-name="Grupo 116739" transform="translate(5.633 24.763)">
            <path id="Trazado_161662" data-name="Trazado 161662" d="M102.118,138.343H99.3a90.039,90.039,0,0,0-6.66,6.769,15.69,15.69,0,0,0-1.842,2.556h11.315Z" transform="translate(-90.803 -138.343)" fill="#a7e446"/>
            <rect id="Rectángulo_40749" data-name="Rectángulo 40749" width="8.141" height="9.325" transform="translate(14.463 0)" fill="#a7e446"/>
          </g>
        </g>
      </g>
    </g>
  </g>
</svg>
