<svg xmlns="http://www.w3.org/2000/svg" width="610" height="225" viewBox="0 0 610 225">
  <g id="Grupo_138847" data-name="Grupo 138847" transform="translate(-705 -4374)">
    <rect id="Image_Place_Holder" data-name="Image Place Holder" width="610" height="225" transform="translate(1315 4599) rotate(180)" fill="#d9eaea"/>
    <g id="Capa_2" data-name="Capa 2" transform="translate(1096 4435.988)">
      <g id="Recursos" transform="translate(0)">
        <path id="Trazado_158708" data-name="Trazado 158708" d="M385.967,7H350.116a4.176,4.176,0,0,0-4.176,4.176V30.409a4.176,4.176,0,0,0,4.176,4.176h3.037v10.94a1.563,1.563,0,0,0,2.81.958l9.226-11.9h20.779a4.176,4.176,0,0,0,4.176-4.176V11.176A4.176,4.176,0,0,0,385.967,7Z" transform="translate(-290.143 -7)" fill="#fc4b52" stroke="#12263f" stroke-miterlimit="10" stroke-width="4"/>
        <rect id="Rectángulo_40453" data-name="Rectángulo 40453" width="12.26" height="32.485" rx="6" transform="matrix(0.972, -0.234, 0.234, 0.972, 1.946, 48.072)" fill="#dff7f9" stroke="#12263f" stroke-miterlimit="10" stroke-width="4"/>
        <path id="Trazado_158709" data-name="Trazado 158709" d="M108.29,147.118l29.322,13.07a1.832,1.832,0,0,0,1.594-.057,1.409,1.409,0,0,0,.779-1.224V119.62a1.409,1.409,0,0,0-.779-1.224,1.832,1.832,0,0,0-1.594-.057L108.29,131.41Z" transform="translate(-92.036 -89.785)" fill="#dff7f9" stroke="#12263f" stroke-miterlimit="10" stroke-width="4"/>
        <path id="Trazado_158710" data-name="Trazado 158710" d="M264.486,118.349l-4.426,1.659v38.53l4.426,1.657a2.554,2.554,0,0,0,1.9-.057,1.411,1.411,0,0,0,.928-1.223V119.63a1.41,1.41,0,0,0-.927-1.224A2.554,2.554,0,0,0,264.486,118.349Z" transform="translate(-216.81 -89.792)" fill="#12263f"/>
        <path id="Trazado_158711" data-name="Trazado 158711" d="M10.674,207.4H26v18.772H10.674A3.577,3.577,0,0,1,7,222.7V210.873a3.577,3.577,0,0,1,3.674-3.473Z" transform="translate(-7 -167.297)" fill="#12263f" stroke="#12263f" stroke-miterlimit="10" stroke-width="4"/>
        <path id="Trazado_158712" data-name="Trazado 158712" d="M296.18,222.93H298.1a7.312,7.312,0,0,1,7.383,7.24h0a7.312,7.312,0,0,1-7.383,7.24H296.18Z" transform="translate(-248.231 -180.68)" fill="#dff7f9" stroke="#12263f" stroke-miterlimit="10" stroke-width="4"/>
        <rect id="Rectángulo_40454" data-name="Rectángulo 40454" width="32.094" height="3.727" rx="1.863" transform="translate(61.687 7.453)" fill="#12263f"/>
        <rect id="Rectángulo_40455" data-name="Rectángulo 40455" width="18.15" height="3.727" rx="1.863" transform="translate(67.196 16.587)" fill="#12263f"/>
        <path id="Trazado_158713" data-name="Trazado 158713" d="M385.967,397.073H350.116a4.179,4.179,0,0,1-4.176-4.179V373.659a4.176,4.176,0,0,1,4.176-4.171h3.037V358.543a1.563,1.563,0,0,1,2.81-.96l9.226,11.905h20.779a4.176,4.176,0,0,1,4.176,4.171v19.231A4.179,4.179,0,0,1,385.967,397.073Z" transform="translate(-290.143 -298.05)" fill="#feca2e" stroke="#12263f" stroke-miterlimit="10" stroke-width="4"/>
        <rect id="Rectángulo_40456" data-name="Rectángulo 40456" width="32.094" height="3.727" rx="1.863" transform="translate(61.687 87.839)" fill="#12263f"/>
        <rect id="Rectángulo_40457" data-name="Rectángulo 40457" width="18.15" height="3.727" rx="1.863" transform="translate(67.196 78.705)" fill="#12263f"/>
      </g>
    </g>
  </g>
</svg>
